<svg width="120" height="120" viewBox="0 0 120 120" fill="none" xmlns="http://www.w3.org/2000/svg">
<circle cx="60" cy="60" r="60" fill="white"/>
<path d="M53.6708 23.8806C53.5367 22.9397 54.3157 22.0166 55.2667 22.0115C59.24 22.0039 63.2134 22.009 67.1868 22.0065C68.0846 21.9205 68.9648 22.7045 68.9597 23.6125C68.9901 24.9631 68.9901 26.3187 68.9597 27.6719C68.9875 28.5267 68.2515 29.3057 67.3967 29.3335C66.5975 29.3664 65.7957 29.331 64.9939 29.3411C64.9914 30.2769 64.9939 31.2127 64.9914 32.1485C69.8323 32.7201 74.5265 34.445 78.5959 37.131C80.0629 35.4542 81.5222 33.7697 82.9917 32.0954C84.3246 30.6892 86.7602 30.6285 88.1285 32.0195C89.5296 33.2614 89.6156 35.6085 88.3789 36.9945C86.9676 38.6182 85.5639 40.2521 84.1197 41.848C88.3055 46.4334 91.0851 52.334 91.682 58.5331C92.332 64.6183 90.9384 70.8856 87.7971 76.1362C84.6584 81.4602 79.7973 85.7193 74.1699 88.2511C67.943 91.0762 60.7803 91.7363 54.1311 90.1733C45.6001 88.2233 38.01 82.439 33.9987 74.644C30.5135 74.6491 27.0308 74.6465 23.5481 74.6465C23.5455 74.1837 23.543 73.7209 23.543 73.258C26.7981 73.2479 30.0532 73.2631 33.3082 73.253C32.2915 70.9059 31.5277 68.45 31.1255 65.9208C26.4187 65.9234 21.7094 65.9183 17 65.9234C17 65.4681 17 65.0154 17.0025 64.5627C21.6461 64.4893 26.2948 64.5449 30.9409 64.5323C30.7006 62.0891 30.7588 59.6231 31.0952 57.1926C27.481 57.1951 23.8693 57.1976 20.2551 57.1926C20.2576 56.7297 20.2576 56.2669 20.2601 55.8041C23.9553 55.799 27.653 55.8116 31.3481 55.799C31.8868 53.2597 32.7265 50.7811 33.9152 48.4694C28.2751 48.4719 22.6376 48.4669 17 48.4719C17 48.0066 17.0025 47.5462 17.0051 47.0834C22.888 47.0708 28.7734 47.0834 34.6588 47.0758C39.4061 38.8433 48.2178 33.2007 57.6492 32.1561C57.6643 31.2178 57.6593 30.282 57.6542 29.3437C56.3618 29.2223 54.5484 29.8166 53.8048 28.375C53.5089 26.908 53.7517 25.3728 53.6708 23.8806ZM55.034 23.3672C55.034 24.8948 55.0315 26.4224 55.0365 27.9501C59.2173 27.9526 63.4006 27.9526 67.5813 27.9501C67.5889 26.4224 67.5838 24.8973 67.5838 23.3697C63.4006 23.3646 59.2173 23.3672 55.034 23.3672ZM59.0149 29.3411C59.0175 30.2289 59.0149 31.1166 59.0175 32.0069C60.5451 31.9462 62.0753 31.9133 63.6004 32.0195C63.6029 31.1293 63.6029 30.2365 63.6004 29.3462C62.0702 29.3361 60.5426 29.3437 59.0149 29.3411ZM83.9856 33.0767C82.5288 34.6575 81.1656 36.3268 79.7113 37.9151C80.938 38.8332 82.0989 39.8347 83.2067 40.8894C84.5193 39.2631 85.9534 37.738 87.3014 36.1421C87.9742 35.4036 88.0728 34.225 87.5038 33.3979C86.7931 32.2042 84.8987 32.0145 83.9856 33.0767ZM51.4628 34.9837C45.2005 37.1108 39.7602 41.4863 36.2421 47.0783C37.1931 47.0783 38.1466 47.0758 39.1001 47.0783C39.0975 47.5412 39.0975 48.004 39.1001 48.4694C37.8861 48.4719 36.6746 48.4669 35.4606 48.4719C34.2061 50.7659 33.3183 53.2521 32.7467 55.8041C34.8637 55.8066 36.9806 55.8041 39.0976 55.8041C39.1001 56.2669 39.1001 56.7323 39.0976 57.1951C36.8972 57.1976 34.6942 57.1901 32.4938 57.1976C32.122 59.6231 32.0765 62.0916 32.3269 64.5323C34.5829 64.5272 36.8415 64.5298 39.1001 64.5298C39.0975 64.9926 39.0975 65.4555 39.1001 65.9208C36.9047 65.9259 34.7119 65.9132 32.5191 65.9284C32.9516 68.4601 33.7458 70.9236 34.8232 73.2555C36.2471 73.258 37.6736 73.253 39.0976 73.2555C39.1001 73.7183 39.1001 74.1812 39.1001 74.6465C37.9189 74.6465 36.7403 74.6465 35.5617 74.6465C38.9509 80.8506 44.7528 85.6561 51.4274 87.9577C57.8616 90.2162 65.0724 90.1859 71.4839 87.8616C77.0076 85.8888 81.9067 82.2012 85.316 77.4286C88.9252 72.4335 90.7689 66.1889 90.425 60.0329C90.1442 54.6381 88.222 49.342 84.9619 45.0322C80.7963 39.4351 74.5341 35.4441 67.7052 34.005C62.3408 32.839 56.6476 33.1602 51.4628 34.9837Z" fill="#FD591E"/>
<path d="M70.4746 40.6821C70.8919 40.8693 71.3118 41.0514 71.7342 41.2284C69.1898 46.7345 66.696 52.2633 64.1744 57.7795C65.1532 58.5989 65.8766 59.7674 65.96 61.0598C66.2003 63.3209 64.5386 65.6073 62.2977 66.0322C60.5045 66.4521 58.5191 65.6579 57.4872 64.1404C56.4503 62.6735 56.3541 60.5894 57.3304 59.0668C58.4129 57.1497 60.9219 56.3378 62.9655 57.0789C65.4997 51.6285 67.9404 46.1351 70.4746 40.6821ZM60.416 58.3055C59.3209 58.5837 58.4584 59.4917 58.1398 60.5641C57.5024 62.5824 59.2374 64.889 61.3645 64.76C63.2614 64.7954 64.8775 62.9415 64.574 61.0674C64.4046 59.1275 62.2699 57.7137 60.416 58.3055Z" fill="#FD591E"/>
</svg>
