<svg width="120" height="120" viewBox="0 0 120 120" fill="none" xmlns="http://www.w3.org/2000/svg">
<circle cx="60" cy="60" r="60" fill="white"/>
<path d="M58.7 60.2C58.7 67.8533 57.1133 73.9667 53.94 78.54C50.7667 83.1133 46.4033 85.4 40.85 85.4C35.2967 85.4 30.9333 83.1133 27.76 78.54C24.5867 73.9667 23 67.8533 23 60.2C23 52.5467 24.5867 46.4333 27.76 41.86C30.9333 37.2867 35.2967 35 40.85 35C46.4033 35 50.7667 37.2867 53.94 41.86C57.1133 46.4333 58.7 52.5467 58.7 60.2ZM28.81 77.77C31.7967 82.0167 35.81 84.14 40.85 84.14C45.89 84.14 49.88 82.0167 52.82 77.77C55.8067 73.5233 57.3 67.6667 57.3 60.2C57.3 52.78 55.8067 46.9467 52.82 42.7C49.88 38.4067 45.89 36.26 40.85 36.26C35.8567 36.26 31.8433 38.4067 28.81 42.7C25.87 46.9933 24.4 52.8267 24.4 60.2C24.4 67.6667 25.87 73.5233 28.81 77.77Z" fill="#FD591E"/>
<path d="M84.5918 63.7H70.5918V72.24H90.1918V73.5H70.5918V84.7H69.1918V73.5H62.8918V72.24H69.1918V63.7H62.8918V62.44H69.1918V35.7H84.5918C88.4185 35.7 91.7085 37.0767 94.4618 39.83C97.2151 42.5833 98.5918 45.8733 98.5918 49.7C98.5918 53.5267 97.2151 56.8167 94.4618 59.57C91.7085 62.3233 88.4185 63.7 84.5918 63.7ZM84.5918 36.96H70.5918V62.44H84.5918C88.0451 62.44 91.0085 61.2033 93.4818 58.73C95.9551 56.1633 97.1918 53.1533 97.1918 49.7C97.1918 46.2 95.9551 43.2133 93.4818 40.74C91.0085 38.22 88.0451 36.96 84.5918 36.96Z" fill="#FD591E"/>
</svg>
