<svg width="120" height="120" viewBox="0 0 120 120" fill="none" xmlns="http://www.w3.org/2000/svg">
<circle cx="60" cy="60" r="60" fill="white"/>
<path d="M67.0628 24.9973C67.385 24.8004 67.8233 24.9598 67.9792 25.2938C69.0104 27.1289 69.9749 29.0051 71.0307 30.8227C72.5343 31.7063 74.0952 32.502 75.6175 33.3563C76.0112 33.5906 76.4565 33.7524 76.7987 34.0629C77.0788 34.3781 76.9358 34.9055 76.5596 35.0719C74.7971 36.0492 73.0229 37.0078 71.2546 37.9746C71.0718 38.0602 70.9393 38.2149 70.8526 38.3942C69.9233 40.1203 68.9718 41.8348 68.0366 43.5574C67.9112 43.8094 67.6874 44.0508 67.3827 44.0332C67.0792 44.0473 66.8565 43.807 66.7335 43.5574C65.7831 41.8067 64.8198 40.0617 63.8694 38.311C63.7839 38.1258 63.6081 38.018 63.437 37.9266C61.7378 37.0125 60.055 36.0668 58.3546 35.1563C58.1179 35.0309 57.8554 34.861 57.8296 34.5668C57.7757 34.2668 57.9702 33.9902 58.2315 33.8649C60.0011 32.8981 61.7694 31.9266 63.5401 30.9621C63.73 30.8754 63.8413 30.6973 63.935 30.5203C64.8339 28.8481 65.7608 27.191 66.6608 25.5199C66.7722 25.3324 66.8682 25.1156 67.0628 24.9973ZM64.8936 31.4906C64.7823 31.7227 64.5878 31.8949 64.3628 32.0086C62.8546 32.8289 61.3475 33.6492 59.8429 34.4742C61.3651 35.3051 62.8886 36.1348 64.4108 36.968C64.6089 37.0688 64.7753 37.2258 64.8761 37.4274C65.7116 38.9567 66.5483 40.4859 67.385 42.0152C68.2241 40.4895 69.0538 38.959 69.8905 37.432C69.9901 37.2305 70.1542 37.0723 70.3557 36.9738C71.8815 36.143 73.4061 35.311 74.9272 34.4731C73.3968 33.6352 71.8686 32.7938 70.3346 31.9617C70.1307 31.8633 69.9772 31.6934 69.8776 31.4942C69.0503 29.9719 68.2171 28.452 67.385 26.9309C66.553 28.4496 65.7221 29.9695 64.8936 31.4906Z" fill="#FD591E"/>
<path d="M77.0366 39.893C77.3202 39.7102 77.7409 39.8016 77.912 40.098C78.3877 40.8867 78.7909 41.7199 79.2526 42.518C79.3463 42.6961 79.5409 42.7781 79.7084 42.8754C80.3436 43.2094 80.9682 43.5645 81.6034 43.902C81.8143 44.0273 82.0733 44.1445 82.1553 44.3988C82.262 44.6836 82.1331 45.0293 81.8659 45.1758C81.0971 45.627 80.2991 46.0289 79.5221 46.4672C79.3627 46.5422 79.2584 46.684 79.1799 46.8363C78.7791 47.5699 78.3889 48.3094 77.9788 49.0371C77.8463 49.309 77.544 49.493 77.2393 49.4203C76.8807 49.357 76.7459 48.975 76.5807 48.6996C76.1846 47.9988 75.8413 47.2641 75.4042 46.5891C74.5838 46.0547 73.6745 45.6633 72.8436 45.1453C72.4756 44.932 72.4616 44.3344 72.819 44.1047C73.6592 43.5609 74.6084 43.1883 75.4264 42.6164C75.9127 41.8324 76.3065 40.9922 76.7717 40.1953C76.8432 40.0816 76.9194 39.9645 77.0366 39.893ZM76.6604 43.1367C76.535 43.3523 76.4225 43.5984 76.1952 43.7262C75.6655 44.0391 75.1147 44.3156 74.5791 44.6168C75.1639 44.9684 75.8061 45.2309 76.3592 45.6305C76.7588 46.1859 77.0249 46.827 77.3752 47.4141C77.6155 46.9758 77.8557 46.5375 78.0901 46.0957C78.212 45.8789 78.3233 45.634 78.5518 45.5086C79.0838 45.198 79.6346 44.9191 80.1713 44.618C79.7213 44.3707 79.2725 44.1223 78.8202 43.8809C78.5987 43.759 78.3573 43.6371 78.2413 43.4016C77.9448 42.8789 77.6706 42.3445 77.3752 41.8231C77.1338 42.259 76.8948 42.6961 76.6604 43.1367Z" fill="#FD591E"/>
<path d="M36.8226 41.9203C39.9937 41.5137 43.2035 41.4187 46.3968 41.5781C49.405 41.7363 52.4109 42.123 55.3288 42.8836C57.246 43.3934 59.1468 44.0496 60.8589 45.068C61.9488 45.7359 63.0058 46.5773 63.5788 47.7492C63.9105 48.4242 64.0007 49.1894 63.9456 49.9336C63.9245 52.5082 63.9492 55.0828 63.9328 57.6574C63.9257 58.8867 63.1839 59.9742 62.2886 60.7582C60.8519 62.0039 59.0835 62.7855 57.3011 63.3984C54.4253 64.3699 51.4136 64.8785 48.3972 65.1551C43.1671 65.5969 37.8503 65.3906 32.7222 64.2258C35.312 65.3871 38.0988 66.0293 40.8972 66.4441C46.3546 67.207 51.9421 67.1262 57.3644 66.1324C60.0163 65.6027 62.6847 64.8797 65.0144 63.4664C64.6886 62.3039 64.4472 61.0863 64.6136 59.8758C64.7249 59.032 65.0788 58.2023 65.7046 57.6117C67.3675 55.9957 69.0292 54.3785 70.691 52.7613C71.257 52.2293 71.7503 51.5941 72.4605 51.2437C73.6406 50.6308 75.041 50.7105 76.3054 50.9777C78.464 51.4535 80.4574 52.4719 82.3417 53.6016C86.0449 55.8773 89.3437 58.7648 92.3074 61.9348C94.6968 64.5105 96.873 67.3031 98.6273 70.3535C99.6785 72.2191 100.61 74.1879 101.045 76.2973C101.307 77.6215 101.367 79.0887 100.692 80.3039C100.297 81.048 99.5917 81.5355 99.021 82.1297C97.7109 83.4023 96.4007 84.6726 95.0906 85.9441C94.4167 86.5734 93.8074 87.3422 92.9003 87.6433C91.3675 88.1824 89.6941 87.8472 88.1906 87.368C85.1261 86.3285 82.3792 84.5414 79.8234 82.5879C76.3511 79.8914 73.2328 76.7449 70.5175 73.2902C69.7453 72.2953 68.9999 71.2781 68.3203 70.2176C67.5222 71.9379 65.8253 72.9879 64.1788 73.7824C63.6691 74.0601 63.0445 74.1527 62.639 74.5957C61.4683 75.7875 59.9413 76.5445 58.4109 77.1633C55.6218 78.2543 52.6605 78.8426 49.6945 79.193C44.1374 79.8023 38.4667 79.6488 32.9952 78.4629C30.9163 77.9976 28.8585 77.3695 26.9601 76.3922C26.0472 75.9211 25.187 75.341 24.4464 74.6273C24.4488 76.4297 24.4464 78.2332 24.4464 80.0355C24.4312 80.5594 24.6011 81.0738 24.9023 81.5004C25.6089 82.4953 26.68 83.1492 27.7464 83.7023C30.0644 84.8461 32.5968 85.4777 35.1304 85.9289C40.0558 86.7504 45.1031 86.8172 50.0566 86.209C52.8913 85.8398 55.7226 85.2515 58.3699 84.1476C59.5898 83.6133 60.8074 82.9863 61.746 82.0219C62.2007 81.5461 62.5898 80.9484 62.6191 80.2711C62.6601 79.4191 62.5933 78.5648 62.6449 77.7152C62.687 77.2383 63.3304 76.9851 63.6878 77.3051C64.0253 77.5617 63.921 78.0305 63.941 78.3984C63.8941 79.4519 64.0921 80.5664 63.6339 81.5578C63.0585 82.8246 61.9183 83.7222 60.7499 84.4195C58.3956 85.7777 55.7425 86.5148 53.0941 87.0492C47.9636 88.023 42.6843 88.1508 37.4976 87.5859C34.6851 87.2601 31.8808 86.7176 29.2136 85.7531C27.6492 85.1683 26.0988 84.45 24.8261 83.3484C24.1429 82.7519 23.5488 82.0101 23.2839 81.1312C23.0824 80.475 23.1468 79.7812 23.1386 79.1051C23.1339 76.6406 23.148 74.175 23.1292 71.7105C23.1761 70.8129 23.5769 69.9609 24.1687 69.293C25.1437 68.1773 26.455 67.4262 27.7839 66.8086C27.7851 65.414 27.7874 64.0195 27.7827 62.625C26.3507 61.9535 24.9152 61.1332 23.9402 59.8547C23.4644 59.223 23.1456 58.4566 23.1421 57.6598C23.1269 55.0816 23.1527 52.5035 23.1304 49.9254C23.0671 49.1238 23.1878 48.2941 23.5804 47.5828C24.3843 46.1437 25.8327 45.2203 27.2683 44.4973C30.2589 43.0535 33.5484 42.3574 36.8226 41.9203ZM39.3163 42.9785C36.6878 43.1918 34.0652 43.5879 31.5234 44.3004C29.912 44.7656 28.3148 45.3387 26.871 46.2035C26.046 46.718 25.2304 47.3273 24.7406 48.1875C24.4265 48.7148 24.3913 49.3805 24.5777 49.9582C24.8894 50.7797 25.5714 51.3844 26.264 51.8906C27.6527 52.8668 29.2511 53.4937 30.8613 54.0035C33.5437 54.8262 36.3304 55.2668 39.1218 55.5023C44.2546 55.9043 49.4706 55.6641 54.4921 54.4769C56.7703 53.8933 59.0788 53.1644 60.9949 51.757C61.7624 51.1605 62.5734 50.373 62.6038 49.3359C62.6765 48.4594 62.0929 47.7082 61.4859 47.1457C60.2495 46.0476 58.7097 45.3644 57.1675 44.8113C54.6937 43.9488 52.1062 43.4508 49.5093 43.1473C46.1273 42.7641 42.7089 42.7148 39.3163 42.9785ZM24.4394 52.0594C24.4617 53.925 24.4335 55.7918 24.4523 57.6574C24.464 58.493 25.0089 59.1937 25.5972 59.734C26.9015 60.9105 28.5644 61.5574 30.1874 62.1621C32.7245 63.0094 35.3718 63.4922 38.0273 63.7781C41.2734 64.1168 44.5499 64.1472 47.8019 63.893C50.6589 63.6574 53.5101 63.2086 56.2535 62.3637C57.8578 61.8551 59.4515 61.2305 60.8296 60.2473C61.4812 59.7773 62.1035 59.2101 62.4421 58.4672C62.6929 57.9199 62.6203 57.3047 62.6296 56.7223C62.6343 55.1672 62.6179 53.6133 62.6378 52.0582C61.8972 52.8059 61.0042 53.3812 60.0749 53.8664C58.2785 54.8016 56.3249 55.3816 54.3632 55.8527C49.6195 56.9203 44.714 57.1781 39.8695 56.8711C36.7171 56.6519 33.5636 56.1984 30.5355 55.2715C28.3441 54.5742 26.114 53.6894 24.4394 52.0594ZM73.5199 52.2199C72.7324 52.418 72.1253 53.1141 71.9742 53.9027C71.7093 55.2035 72.0328 56.5336 72.4288 57.7734C73.1929 60.0351 74.3859 62.1246 75.7054 64.1039C78.1171 67.6676 81.0292 70.8832 84.246 73.7367C86.8288 75.9949 89.6179 78.0656 92.7304 79.5375C94.1941 80.1937 95.7503 80.7902 97.3792 80.7703C98.2019 80.7726 99.0773 80.4469 99.5214 79.7191C99.9984 78.8965 99.9644 77.8922 99.8367 76.9805C99.5554 75.2262 98.8429 73.5738 98.0355 72.0023C96.4136 68.9191 94.3031 66.1183 91.9886 63.525C89.3706 60.6258 86.4679 57.968 83.2499 55.7473C81.3503 54.4594 79.3429 53.2875 77.1562 52.5621C75.9914 52.1988 74.7292 51.9058 73.5199 52.2199ZM66.6281 58.5375C66.2578 58.8844 66.0328 59.3578 65.9449 59.8535C65.7445 60.948 65.9753 62.0672 66.2847 63.1207C67.0429 65.5418 68.2874 67.7812 69.6703 69.8965C72.2367 73.6898 75.3562 77.0988 78.8226 80.0871C81.4089 82.275 84.1992 84.2847 87.3199 85.6418C88.8081 86.2453 90.4277 86.8113 92.0542 86.5289C92.7867 86.4199 93.3117 85.8703 93.8062 85.3676C94.9441 84.2754 96.0585 83.1586 97.2105 82.0816C95.7679 82.0652 94.3675 81.641 93.0421 81.1008C91.1542 80.3226 89.3882 79.2738 87.7078 78.1195C84.6304 75.9855 81.8331 73.4637 79.2949 70.7156C76.6265 67.8 74.2054 64.6195 72.4089 61.0875C71.4292 59.0976 70.5726 56.9601 70.5609 54.7101C69.2542 55.9898 67.9394 57.2625 66.6281 58.5375ZM29.0929 63.3527C29.0929 65.1656 29.1023 66.9785 29.0941 68.7914C29.0613 69.6457 29.5804 70.3945 30.1874 70.9465C31.3499 71.9953 32.7925 72.668 34.2445 73.2164C36.9527 74.2055 39.8062 74.734 42.6644 75.0457C45.8882 75.3808 49.1413 75.4172 52.3722 75.1687C54.9667 74.9601 57.5542 74.5711 60.0679 73.8797C62.0273 73.3183 63.996 72.6199 65.6507 71.3988C66.4441 70.7906 67.248 69.968 67.2785 68.9062C67.3265 68.5172 67.0617 68.2031 66.8917 67.882C66.3351 66.8719 65.83 65.8312 65.421 64.7519C63.0152 66.1336 60.3093 66.8871 57.6035 67.4191C52.4566 68.3695 47.1667 68.4973 41.9695 67.9055C39.3421 67.5914 36.7253 67.0828 34.2175 66.225C32.3671 65.5687 30.5238 64.7308 29.0929 63.3527ZM24.8074 70.6277C24.3175 71.359 24.3585 72.3762 24.8765 73.0816C25.6757 74.2289 26.9367 74.9379 28.1718 75.5297C30.8285 76.7414 33.7113 77.3672 36.5906 77.7762C41.5488 78.4312 46.6042 78.3902 51.546 77.6144C54.1136 77.2031 56.6554 76.5515 59.0343 75.4875C57.5999 75.8355 56.1374 76.0629 54.6749 76.2562C49.323 76.8797 43.8679 76.7695 38.5699 75.7547C36.0445 75.2449 33.5214 74.5394 31.2515 73.2914C30.0199 72.5824 28.7859 71.7023 28.139 70.3945C27.7992 69.7383 27.7663 68.9848 27.7816 68.2605C26.6601 68.85 25.5058 69.5344 24.8074 70.6277Z" fill="#FD591E"/>
<path d="M48.6891 44.6226C50.1188 44.4398 51.5918 44.4726 52.9922 44.8324C53.6297 45.0164 54.3293 45.2625 54.7078 45.8461C55.0172 46.3113 54.8895 46.9652 54.4805 47.3273C53.9051 47.85 53.1188 48.0445 52.3781 48.2039C50.8758 48.4605 49.3195 48.45 47.8313 48.1101C47.1211 47.9273 46.3289 47.6801 45.9141 47.0285C45.5754 46.5094 45.7945 45.798 46.2785 45.4523C46.9735 44.939 47.8512 44.7574 48.6891 44.6226ZM47.1024 46.4391C48.102 46.9875 49.2774 47.0555 50.3942 47.0719C51.4594 47.0473 52.5703 46.957 53.5277 46.4449C52.6758 45.9914 51.6961 45.8766 50.7457 45.832C49.5117 45.8027 48.2262 45.8789 47.1024 46.4391Z" fill="#FD591E"/>
</svg>
