<svg width="26" height="29" viewBox="0 0 26 29" fill="none" xmlns="http://www.w3.org/2000/svg">
<g clip-path="url(#clip0_96_106)">
<path fill-rule="evenodd" clip-rule="evenodd" d="M0.298249 0.851624C0.10592 1.18053 0 1.61258 0 2.13939V26.8551C0 27.2314 0.0557475 27.5575 0.156093 27.8335L13.7167 14.2729L0.298249 0.851624Z" fill="#FD591E"/>
<path fill-rule="evenodd" clip-rule="evenodd" d="M24.6266 12.8819L19.5619 10.0054L15.2944 14.2728L19.849 18.8274L24.6266 16.1125C26.1903 15.2178 26.1903 13.7627 24.6266 12.8819Z" fill="#FD591E"/>
<path fill-rule="evenodd" clip-rule="evenodd" d="M0.864014 28.7031C1.3741 28.9763 2.07095 28.9289 2.8319 28.5052L18.8426 19.396L14.5055 15.0616L0.864014 28.7031Z" fill="#FD591E"/>
<path fill-rule="evenodd" clip-rule="evenodd" d="M18.5584 9.43399L2.83199 0.500433C2.22713 0.154798 1.65851 0.0572397 1.1958 0.17431L14.5055 13.4841L18.5584 9.43399Z" fill="#FD591E"/>
</g>
<defs>
<clipPath id="clip0_96_106">
<rect width="25.8" height="28.7463" fill="white" transform="translate(0 0.126892)"/>
</clipPath>
</defs>
</svg>
