<svg width="26" height="32" viewBox="0 0 26 32" fill="none" xmlns="http://www.w3.org/2000/svg">
<path d="M21.4542 16.4355C21.4542 12.4663 24.6792 10.4817 24.9273 10.3576C23.0667 7.62879 20.0898 7.25668 19.0975 7.25668C16.6167 7.0086 14.26 8.74514 13.0196 8.74514C11.7792 8.74514 9.79461 7.25668 7.80999 7.38072C5.20518 7.38072 2.72441 8.99322 1.35999 11.3499C-1.49289 16.1874 0.615761 23.3817 3.34461 27.3509C4.70903 29.3355 6.32153 31.4442 8.30614 31.3201C10.2908 31.1961 11.035 30.0798 13.5158 30.0798C15.8725 30.0798 16.6167 31.3201 18.7254 31.3201C20.834 31.3201 22.1985 29.3355 23.5629 27.4749C25.1754 25.2423 25.7956 23.1336 25.7956 23.0096C25.6715 22.7615 21.5783 21.149 21.4542 16.4355Z" fill="#FD591E"/>
<path d="M17.485 5.08558C18.6014 3.72115 19.3456 1.86058 19.0975 0C17.485 0.124038 15.6245 1.11635 14.3841 2.35673C13.3918 3.47308 12.5235 5.45769 12.7716 7.19423C14.6322 7.44231 16.3687 6.45 17.485 5.08558Z" fill="#FD591E"/>
</svg>
