<svg width="15" height="8" viewBox="0 0 15 8" fill="none" xmlns="http://www.w3.org/2000/svg">
<path d="M-3.17264e-05 6.82992C-0.000540028 6.68052 0.0324323 6.53291 0.0964611 6.39793C0.16049 6.26296 0.253949 6.14404 0.369969 6.04992L6.36997 1.21992C6.5489 1.07284 6.77334 0.992431 7.00497 0.992431C7.23659 0.992431 7.46104 1.07284 7.63997 1.21992L13.64 6.21992C13.8442 6.38966 13.9726 6.63357 13.997 6.898C14.0214 7.16242 13.9397 7.4257 13.77 7.62992C13.6002 7.83414 13.3563 7.96256 13.0919 7.98694C12.8275 8.01132 12.5642 7.92966 12.36 7.75992L6.99997 3.28992L1.63997 7.60992C1.49318 7.7322 1.31444 7.80988 1.12489 7.83376C0.935345 7.85764 0.742921 7.82672 0.570393 7.74467C0.397866 7.66261 0.252454 7.53285 0.151364 7.37074C0.0502736 7.20863 -0.00226333 7.02095 -3.17264e-05 6.82992Z" fill="#FD591E"/>
</svg>
