<svg width="24" height="24" viewBox="0 0 24 24" fill="none" xmlns="http://www.w3.org/2000/svg">
<path d="M12.6765 10.5012C12.6459 10.3322 12.5531 10.1807 12.4164 10.0767C12.2797 9.97262 12.109 9.92352 11.9379 9.93905C11.7668 9.95457 11.6077 10.0336 11.4919 10.1605C11.3762 10.2875 11.3122 10.4532 11.3125 10.625V16.8152L11.3235 16.939C11.3541 17.1081 11.4469 17.2595 11.5836 17.3636C11.7203 17.4676 11.891 17.5167 12.0621 17.5012C12.2332 17.4857 12.3923 17.4067 12.5081 17.2797C12.6238 17.1527 12.6878 16.9871 12.6875 16.8152V10.625L12.6765 10.5012ZM13.0986 7.53125C13.0986 7.25775 12.99 6.99544 12.7966 6.80205C12.6032 6.60865 12.3409 6.5 12.0674 6.5C11.7939 6.5 11.5316 6.60865 11.3382 6.80205C11.1448 6.99544 11.0361 7.25775 11.0361 7.53125C11.0361 7.80475 11.1448 8.06706 11.3382 8.26045C11.5316 8.45385 11.7939 8.5625 12.0674 8.5625C12.3409 8.5625 12.6032 8.45385 12.7966 8.26045C12.99 8.06706 13.0986 7.80475 13.0986 7.53125ZM23 12C23 9.08262 21.8411 6.28473 19.7782 4.22183C17.7153 2.15893 14.9174 1 12 1C9.08262 1 6.28473 2.15893 4.22183 4.22183C2.15893 6.28473 1 9.08262 1 12C1 14.9174 2.15893 17.7153 4.22183 19.7782C6.28473 21.8411 9.08262 23 12 23C14.9174 23 17.7153 21.8411 19.7782 19.7782C21.8411 17.7153 23 14.9174 23 12ZM2.375 12C2.375 10.736 2.62396 9.48443 3.10766 8.31667C3.59136 7.14891 4.30033 6.08786 5.1941 5.1941C6.08786 4.30033 7.14891 3.59136 8.31667 3.10766C9.48443 2.62396 10.736 2.375 12 2.375C13.264 2.375 14.5156 2.62396 15.6833 3.10766C16.8511 3.59136 17.9121 4.30033 18.8059 5.1941C19.6997 6.08786 20.4086 7.14891 20.8923 8.31667C21.376 9.48443 21.625 10.736 21.625 12C21.625 14.5527 20.6109 17.0009 18.8059 18.8059C17.0009 20.6109 14.5527 21.625 12 21.625C9.44729 21.625 6.99913 20.6109 5.1941 18.8059C3.38906 17.0009 2.375 14.5527 2.375 12Z" fill="#FD591E"/>
</svg>
