<svg width="112" height="36" viewBox="0 0 112 36" fill="none" xmlns="http://www.w3.org/2000/svg">
<path d="M18.7577 5H29.2769V8.66951L24.674 8.66208V22.9828H20.8493V8.66951H16.1523L18.7577 5Z" fill="#FD591E"/>
<path d="M20.8499 22.9751H24.6744V26.7983H20.8499V30.6351H17.0133V26.7983H6V22.9751L16.1593 8.66016H20.8499L10.7077 22.9751L17.0035 22.9752V8.66026L20.8499 8.66016V22.9751Z" fill="#1C1C1C"/>
<path d="M45.286 8.378V11.942H37.726V16.424H45.07V19.988H37.726V27.278H34V8.378H45.286Z" fill="#1C1C1C"/>
<path d="M63.634 24.821C61.726 26.711 59.404 27.656 56.668 27.656C53.932 27.656 51.61 26.711 49.702 24.821C47.812 22.895 46.867 20.564 46.867 17.828C46.867 15.074 47.812 12.752 49.702 10.862C51.61 8.954 53.932 8 56.668 8C59.404 8 61.726 8.954 63.634 10.862C65.542 12.752 66.496 15.074 66.496 17.828C66.496 20.582 65.542 22.913 63.634 24.821ZM52.321 22.283C53.473 23.435 54.922 24.011 56.668 24.011C58.414 24.011 59.863 23.435 61.015 22.283C62.185 21.113 62.77 19.628 62.77 17.828C62.77 16.028 62.185 14.543 61.015 13.373C59.845 12.203 58.396 11.618 56.668 11.618C54.94 11.618 53.491 12.203 52.321 13.373C51.151 14.543 50.566 16.028 50.566 17.828C50.566 19.628 51.151 21.113 52.321 22.283Z" fill="#1C1C1C"/>
<path d="M83.2358 27.278H79.2128L75.4058 20.717H72.5708V27.278H68.8448V8.378H76.4048C78.1508 8.378 79.6358 8.99 80.8598 10.214C82.0838 11.438 82.6958 12.914 82.6958 14.642C82.6958 15.812 82.3628 16.901 81.6968 17.909C81.0308 18.899 80.1488 19.646 79.0508 20.15L83.2358 27.278ZM76.4048 11.861H72.5708V17.45H76.4048C77.1068 17.45 77.7098 17.18 78.2138 16.64C78.7178 16.082 78.9698 15.416 78.9698 14.642C78.9698 13.868 78.7178 13.211 78.2138 12.671C77.7098 12.131 77.1068 11.861 76.4048 11.861Z" fill="#1C1C1C"/>
<path d="M83.3602 8.378H97.2652V11.942H92.1622V27.278H88.4362V11.942H83.3602V8.378Z" fill="#1C1C1C"/>
</svg>
